<svg id="Layer_1" data-name="Layer 1" xmlns="http://www.w3.org/2000/svg" xmlns:xlink="http://www.w3.org/1999/xlink" viewBox="0 0 1366 467"><defs><style>.cls-1,.cls-10,.cls-4,.cls-5,.cls-7,.cls-8,.cls-9{fill:none;}.cls-2{clip-path:url(#clip-path);}.cls-3{fill:#272a2b;}.cls-4{stroke:#72787b;stroke-width:0.5px;}.cls-4,.cls-8{stroke-linecap:round;stroke-linejoin:round;}.cls-5{stroke:#7fced8;stroke-width:0.33px;}.cls-5,.cls-9{stroke-miterlimit:10;}.cls-6{fill:#009db1;isolation:isolate;opacity:0.05;}.cls-10,.cls-7,.cls-9{stroke:#19a7b9;}.cls-7{stroke-miterlimit:10;stroke-width:0.29px;}.cls-8{stroke:#029cb1;stroke-width:3.46px;stroke-dasharray:0.01 13;}.cls-9{stroke-width:0.29px;}.cls-10{stroke-miterlimit:10;stroke-width:0.29px;}</style><clipPath id="clip-path"><polyline class="cls-1" points="0 467 0 0 1366 0 1366 467"/></clipPath></defs><g class="cls-2"><path class="cls-3" d="M1081.12,250.42c116.6,89.84,183.57,238.87,173,385.85-.5-8.27,1.43-29.89-1.57-37.49l-2,15.62c-.56-1.27-1.5-4.28-3.22-4.59-1.31,4.61-4.13,15.6-4.44,20.23-2.78,8.67-2.6,20.52-9.4,27.45a177.59,177.59,0,0,0-8,21.2c-2.82,3.53-5.3,4.17-9.46,2.44-1.14,1.18-4.81.59-6.21.47-1.35.58-2.23,2.16-2.38-.46-5.3-.47-1.67-4.71-6.49-9.22-3.36,1.59-3.12,1.11-5.13-1.73-.46,2.3-1,1.46-2.63.81l-1.17-4.51c-1,3.77-2.18,2.68-5.38,2.75-.56-2.79-3.28-5.77-.14-7.94-10.09-7.88-2.92-9.17-5.84-18.46-.36-6.29-.75-16.13-6.36-20.28l-.91-6.93-4.49-3-.27,2.41c-1.35-3.71-2.38-10.55-1.7-14.42-.61-5.18-2.17-13-.8-18.09-1.16-4.76-4-15.38-1.84-20-.92-5.16-2.93-10.42.3-15.27,1.43-5.4,1.1-13.65.12-19.11l-1.8-4.79c-1.68,0-3.38-4.35-4.06-5.48-.41-2.37-1.65-7.31-3-9.31a65.31,65.31,0,0,1-.06-17.61,94,94,0,0,0-5.62-14.6c1.37-2.64,2-1.83,4.4-1.2,1.59-.54,2.76-4.72,3.26-6.08l2.74-3.76c-.46-3-1-9.77-.42-12.75-.8-3.39-1.41-10.58.09-13.87-.89-1.88.57-8.17.84-10.11l1.61-1.45c-.39-2.78-2.43-8.91.88-10.79a35.32,35.32,0,0,0-1.48-9.5c.85-2.18,1.73-.54,3.11.2l-.49-3.55c1.4,3.49,3.38,7.62,7.57,8.28.81,1.39,4.22,10.63,6,11.11,3.73-3,5.38-2.73,4.5-8.12l1.94-5.25c5.35,5.5,4.51-.78,5.33-4.57,4.47-1.27-5.4-13.35-7.31-15.27-.94-1.44-8.1-17.08-3.2-13.13-.72-8.22-3.07-19.08-8.41-25.65-6.69-16.63-22.41-32.23-35.41-44.18,3,4.83,8.43,10.66,11.39,15.48.31,6.81,3,5.76,5.7,11.35l-1.24.3.36,3.82c-1.84-.5-3.85-4.55-3.33.16l-1.85-3.63c-1,0-4.32-3.69-3.63-.54-3.85-3.22-7.67-9.88-9.19-14.59-1-.84-2.49-5.25-4.11-3.32-1.17-4.95-8.49-14-11.82-17.76.37-.34-6-9.16-3.27-8.25-4.17-8-11.54-16.4-19.47-20.88.29,1.31.74,3.25-.61,4.17l.64,4.2c-1.85-2.43-6.74-6.69-9.19-8.55-1,2.58-6.86-5.08-7.76-5.27,1.86,1.32,15.4,18.87,18.4,16.79l-2.65-3.51L1105,288.42c-2.38-.62-3.47-2.22-2.59,1.45l-5.08-5.45,1.48,5-3-3.47c1.41,3.21,5.18,8.14,8.14,10,.87,2,4.72,4.57,6.57,5.58,4,5.18,11.64,10.3,15.64,15.55,5.34.78,5.7.18,7.58,5.57l3.81,6.49c-1.56,1.71,1.59,6.52,2.23,8.1l3.17,3.84c-1.45,1.67.68,2.39,1.66,3.44,3.44-.15,4.12,2.44,5.66,4.81,1.64-3.43,1.47-2.57,4-.56.2,6.34,2,.45,2.31,5.87,2,.39,4.23,4.37,5.18,5.9,0,2.1-4.39-1.14-5.12-1.1l-2.91-4.73c.21-1.74,1.64-2.93-1.13-2.78l1.51,5.27c-7-1.76-11.06-3.14-15.94-8.79l-7.1,3-.37,2.76c-2.7.53-6.19-1.11-8.32-2.61l-1.35.82,2.85,3.36c-1.34.68-4.28-2.21-5.22-2.82,2.31,9.45,2.38,4.42,8.64,11,3.6-2,5.06-.63,8.28,1,3-.88,4.37.1,3.58-3.86l2.62,2c1.77-1.78,2.6-4.7,5.73-3.42l-1,4.33c1.87,2.87,3.69,4.94,7.23,5.62.63,3.19,5.35,7.44,5.74,10.52l-4.16-5.65-6-3.7-1.08,1.68c-1.74-.85-2.14-2.1-2.87.51-2.8-1.14-2.34.64-3.28,2.56-5.07.53-9.56.35-14.07-2.32-4.11,3.3-1.82,3.69-.21,7.49.31,2.72,2.35,8.57,3.42,11.12-6.35,3.56-3.72,6.57-1.75,11.81l5.29,4.24c1,3,2.75,9.55,2.06,12.7l5.89,13.34c5.85,5.05,3.53-1.55,6.12,8.73.72,1.29,3.27,4,1.74,5.88,5.89,13.87-4.54,11.33-.76,25.24-1.46,1.54-4.67-1.58-5.91-2.2-2.93-.67-2.34,3-3.15,4.7l-2.79,4.14-1.34-3.06c-2.39-2.22-3.59-6.95-7.4-5.38-3.31-4.48-5.16-12.17-8.91-16.46-.86-1.23-6.58-5.35-6.14-7.1l-4.67-2.21-1-3.27c.86-1.56.7-4.73.27-6.39,1.94.45,4-4.77,4.85-5.87,4.87-4.13,2-5.64,6.9-10.1l0-4.23-11.08-12.93c-1.84-1.21-3-3.49-5.29-1.47l-6.24-2.8-6.59,4.27c.25-2.25-1.26-2-2.88-2.47.47-12.7,2.51-.43,4.19-11.15l-6.59-3.61c.8-2.16.75-1.94,2.65-.79l1.71-2.62c-.13-1.63.21-2.89-2-3.07-.39-8.68-2.76-5.83-5.87-11.43l-1.82-9.75-1.41-.16c-7.1-9.54-6-4.87-9.62-17.88,5.24-5.42-7.61-8.59-10.61-10.64-1.11,1.85-6.82-2.89-7.93-3.23l-3.17-3.09c.17-2.23-2.37-5.74-3.67-7.35,1,0,7.9,6.51,8.11,3.41,1.72,1.86,7,8.31,9.37,9.32,2.23-.1,4,1,4.6-2,6.23,5,.31-3.5-.42-4.85,1.11-1.21,1.84-2.75,3.74-1.82-.79-1.86-2.9-9-4.81-10-5.21-11.25.76-2.07-.07-7.66-2.32-1.82-4.39-3.54-4.56-6.76-4.07-1.55-14.4-5.8-17.49-8.87-2.87-3.79-.3-2.5,2.54-3.52-.77-2.33-7.87-4.79-9.79-5.74l.57,1.94-5.34-1.32-4.58-6c-.64-2.92.28-5.7-3.49-6.69-2.15-2.86-2.7-3.13-6.3-2.62l9.09,13.55c-5.87,3.59,1.21,5-9.74.79-10.4,0-15.87-8.83-24.17-12.94-.17-1.91-4-2.35-5.31-2.74-2.27.77-.85,3.79-.74,5.4l3.51,2.42c1.56.75,5,2.55,6.73,1.93,3.43,1.27,10.5,8.88,13,11.56,2.43.92,14.74,9.48,15.54,5.55,3.76-.2,5.42-1.1,7.89,2.5,2.06-.25,5,4.76,6.11,6,4.24,1.71,12.21,6.64,15.91,9.36l.82,3.84c2.56,2.38,5.74,3.06,4.84,7.57a11,11,0,0,0-5.77-2c-1.2-1.29-2.15-2.62-4.06-1.87l-10.58-2.23c-1.84-1.11-5.49-2.23-7.64-1.89.93.84,4.67,2.88,4.16,4.57,1.67,1.9,5.08,6.3,5.54,8.86-2.29,5.21-6.31,1.21-9.27-.79l.06,2.34c-2.92-1.66-13.72-8.44-17-8.53-3.89-1.45-4.61-7-7.74-9-.08-2.77-1.42-3.65-3.61-4.93-1.42-5.51,3.31-4-1.15-6.3.17,1.5,3.66,3.6-.39,2.83-1.78-1.48-5.35-4.86-6.5-6.84-5.49-4.14-15.54-9.25-20.54-13.9a8.57,8.57,0,0,1-4.94-3.35l2.47.23-5.5-2.2c-.57-1.46-7.59-5.59-8.89-6.49l-2.74-4.2c-2.15.4-2.05-2.22-2.58-3.56l-6.29-3.12.58-1.43,5.84,2-6.71-3.18,3.61.34-5.28-3.36,5.11.91c-3.22-1.9-6.92-.69-2-4.46,2.84,3.68,2.39,4.86,3.71-.45-1.26-.71-3-.55-1.79-2.46l2.43,1.08c-3.27-8.81,1.1-5.59,1.91-13.58,4.63-1.69,10.91,2.23,14.32,5.08,1.71,3.69,1.46,7.31.35,11.09l5.65-4.25c2,1.07,6.37,1.28,8.6,1l1.69-2.45c.33-2.65-2.6-2.64-4.32-3.42l-1.44,2.36-2.61-.94c-.31-2.68.66-5.39-2.64-6.5-4,2-10.39-2.36-13.79-3.87.81-4.74-1.23-3-4.58-3.91-3,2.72-9.76-1.13-10.48,1.81L942,223l2.59-1.39a12.15,12.15,0,0,0,5.93,2.72l1.33-1.74-3.64-2.69-4-.2c-1.3-1.28-16.87-7-18.86-7.83l2.89-.63c-.1-2-2.25-1.64-3.61-1.91-1.83-1.86-7.13-3.63-9.6-4.26l2.78-.67c-2.26-.17-6.71-3-8,0-5.36,0-9.68-7.13-12.32-11-4.76.34-5.26-.69-2.13,3.74-1.49.39-6.53,1.18-7.38,2.7l-4.52-.48c-6.48,1.54-7.48,2.45-13.38-1.59,1-.62,7.33-1,6.34-3.16l7.93-4-.67-1.82c2.37-1.23,11.71-.72,14.37-.71.86,1.36,3,1.92,4.5,1.92-4.92-3.94-13.15-4.57-19.16-3.72l-2.94,1.93c-2.4-.47-9.64-1.33-3.53-4-1.59.12-4.16-.2-4.82,1.75,1.71,1.58,6.32,3,8.56,3.4-.36,1.8-5,2.36-6.31,2.76l-.15,2.63-6.68.11c-1.4.72-2.06,3.34-2.14-.17l4.21-1.88-6.34-3.07c5.85,4.72,2.43,3.93-2.18,2.47l.91,1.06c-7.71-.36-4.84-3.48-11.19-4.37,2.37-.34,3.58-1.47,4.69-3.51l-3.47.17c.29,4.69-5.59-.27,1.69,6.4L851.06,195a146.84,146.84,0,0,0-14.69-2.16l1.27,2.78c-4.09.68-13.26,1.83-17.36,1.49l.81.84c-.72-.17-6.36-.15-6.5-1.21L806,198.51c.56,1.93-4.65,3.45-5.69,4.16l-3.26-.79,2.84-1.42-7-1.08c-2.63.48-7.64.35-10.11-.75-4.78-4.06,1.87-5.06,4.62-6.81a19.11,19.11,0,0,1,7.36-3.53c-2.17-.21-8.69-.53-8.55,2.67l-7-1.06c-4.36,1.5-11.14,2.84-15.52.85-11.83,1.64-3.33,1.16-8,4.28-.51.25-6.47-.64-6,.88-2,.1-10.75.69-5.13-2.35-3-.66-10.2-2.21-13.19-1.49l1,3.7c-2.55-.91-5.89.77-8,2l-5.8,1c2.6,1.36-2.68,1.85-3.22,2.49l4.62.51c-.78,1.74-3.23,2.74.39,2.78L708.12,209l-2.78-1.55.44,2.43-4.68,2.18-1.24-1c-2.62.94-8.54,2.81-11.25,3-1.64,2.09-5.27,5.91-7.54,7.28a16.18,16.18,0,0,1-10.43,1.79,9,9,0,0,1-6.1,1.54l1.55,2.15c-.24.92-8.59,6.8-6.17,8l-8.74,3.44.25,2.18,4.87-1.59,3,.36-4.69,4.56c-1.46,4.9-7,9.5-11.24,12l-27.83,5.4-2-2.32,4.71-5.53c-1.91.79-4.86,3.67-6.11,5.29-1.5.42-13.36,6.88-14.8,5.34l3.6-4.55c-.84-1.58-1.52-9.29-4.48-8.56-1.13-2.31-1-3.63-4.09-3.07l5.72-3.41,1.91-4.69-1.56-.9c6.52-.82,1.68-.81,5.25-6.4-1.9.67-5.59-.62-7.31-1.4-6.54,5.25-6.9,2.08-14,5l3.25-1.81a11.6,11.6,0,0,0-8.36,1.36l2-3c-1.61-1.93-3.9-.35-5.71.23l2.4-3.14c-16.82.65,18.55-9.76,21.15-10.31l5.89-.33c1.22,1.43,1.8,1.66,3.55.86l-2,2.82c1.82,2.51,6.51,5.58,5,9.29L617,232l-.81,2.26c3.18-2.47,6.69-4.74-.06-4.33-1.77-3.92-2.61-3.61,1.46-6,5,1.77,6.5-2.48,9.8-5-2.44-5.43-3.59-6.75-9-3.36l8.34-7.41-.72,1.67c3.27-1.6,11.52-5.52,13.35-8.83,2.59-.92,10.89-5.94,13.38-7.4a4.69,4.69,0,0,0,2.23-4.61c1.33-2.67,5.32-6.57,7.85-8.11-4.14,1.19-12.79,3.95-16.69,5.62-1.4,1.82-11,4.56-13.09,5.34-.68-.1-4.76,1.59-4.79,0l-7.86,1.57C768.24,124.68,953.5,149.38,1081.12,250.42ZM1070,242l-11.34-7,3,2.7c-7.75-1.49-14.23-10.73-22.1-12.44,2.84,3,26.91,19.27,30.79,22,1.67.69,5.77,2.57,7.58,1.49l14.21,10.62C1086.78,254.89,1075.68,246.15,1070,242Z"/><path class="cls-3" d="M657.39,252c1.82-.29,3.26-.56,4.5,1.15C660.23,253.09,657.54,254.75,657.39,252Z"/><path class="cls-3" d="M839.43,279.24c1.65-.17,6-.87,7.44.23,2.52-.13,3.78-1.56,4.08,1.91-.54,1.09-4.48,3.38-2.14,4.45,1.91-1.57,2.8-3.35,5.53-2-1.85-6.88,4.18.54,5.74,2.26-.86-3-3.91-4.19.67-5.31l-1.9-2.65c1.2-.66,3.53-2,4.95-1.35l3.05,4.12c-.46,2.46.49,2.62,2.39,3.62l-2.18,1.64c1.26,1.9,5.37,3.24,7.46,3.67,2,3.86,5.93,8.78,10.77,8.08,2.75-1.48,3.14-1.06,5.49.73l-3.08,1.88c.57,1.9,1.58,2.62,3.48,3,1.34-2.48,7.21,1.86,8.78,2.28l-1.71.77,3.6,2.63-.87-1.73,5.15,2.23c-.69,2.49-1,3-3.64,3.23,2.22,1.35,3.13,1,5.25-.21,2.44,1.59,2.11,2.11,1.34,4.68-6.91-.22-5.64-.59-5.47,5.92l2.39-4.53c5.34-.47,6.33.45,10,4-8.84,2-8.27-5.35-9.93,2.38,1.92-3.15,1.56-3.32,4.6-1l8.11-.08L927,329.3l-1.23,2c-4.12,2.19-4.77-2-11.15-1.47,1.66,1.34,2.16,2,1.66,4.2l-3,1.67c1.74,1.19,2.68,1.39,1.77,3.71l4.75-2.86-.25,2.74c1.63-4.06,3.59-4.49,7.39-5.78,2-2.39,1.39-.18,2.12,1.29-.47,2.64-.36,7.71.76,10.19l-5,9c-1.07,1.3-3.82.8-5.2.5,2,1.95,3.31,2.56,2.39,5.62l2.41,6.41-1.09,8.3c-4.27,3.67-3.34,3.23-4.54-1.76-1.5.48-.16,5-.18,5.95L915,381.57l2.4.36c-.31,2.47-.44,2.89-3,3.37,9.82,4.6.81,2.43,7.28,7.95-.17,5.44-.21,10.76,3.13,15.47.73,2,3.13,7.32,1.73,9.45,2.9,2.7,1.66,2.64-.39,5.21-1.5-.4-6.3-.12-6.47-2.44-3.73.17-3.11-1.6-4.19-4.35-1.67,3.83-2.83,4.16-6.71,5-2.86-.75-7.22-5.63-9-7.83-2.24-.42-3.74-.76-4.61-3.12-3.94-2.75-13.33-9.1-5.18-12.88-3.28-.76-3.92,2.4-4,4.94l-5.05-7.95c-3.67.7-4.76-3.08-6.6-5.28.86-3.78.48-3.25-2.8-4.59-1.2-1.92.58-3.52,1.59-5l4.39-.46c.85-2.51-2.83-.23-3.78-.36l-3,2.95-.34-4.75,4.65-.21.17-2.06a9.55,9.55,0,0,1-5.7,1.86l0-2.29c8.13.1,1.43-6.7,2.49-11a16.44,16.44,0,0,1-10.33.06l-1.53-2.44c1.92-.26,5.77-.42,7.5.62l-1.85-4.36c-2.33,0-4.3,2.14-4.37-1.47-1.6-.55-3.13,1.07-4.1,2.06-3.34-.3-2.84-1.68-3.54-4.32-1.95-1.81-1.5-2.83-.88-5.09-4.67-.77-3.59-5.57-7.84-7.34,1.39-2.67-5.36-5.13-6.69-6.34.42-2.56-5.48-3.19-7-3.88a8.66,8.66,0,0,0-7.43,1.46c-3,.63-5.22,1.58-7.83-.89l2-1.94-4.13-.47L813,327a16.06,16.06,0,0,1,7.64-1.37c-1.18-4.07-2.55-1.3-5.3-.64-3-1.61-5.54-1.89-5.86-6l9.12-4.63.39-6.2-3.51.26c-1-1.31,3.11-5.8,3.61-6.81l1.89.19-.88-4.2c1.26-.76,5.23-5,7-4.46,1.09.5,3.42,2.32,4.55,1.17l-3.32-2.4c1.56-.89,6.27.92,7.8,1.38-.68-2.25-1.6-3.67-3.93-4.42-.65-4.37.38-5.3,4.63-3.9l-2.09-2.39Z"/><path class="cls-3" d="M900.3,303.62l3.16,1.22C901.9,307.06,901.47,304.66,900.3,303.62Z"/><path class="cls-3" d="M835.46,291.87c-1.73-.28-3.29-.65-3.87-2.53Z"/><path class="cls-3" d="M968,274.59c1.55-.71,2.33,2.74,2.88,3.54Z"/><path class="cls-3" d="M956.09,265.74l3.74,1.6C958.56,268.4,957,266.4,956.09,265.74Z"/><path class="cls-3" d="M960,269.53c2-.18,3.19-.26,4.28,1.64Z"/><path class="cls-3" d="M755.38,328.12c-3.24,1.2-2.72,1.1-3.06-2.1C753.91,326.45,756.37,325.45,755.38,328.12Z"/><path class="cls-3" d="M773.55,388.17c-.25-1.63-1.43-2.86,1.05-3Z"/><path class="cls-3" d="M795.91,381.94c.64-.64,1.47-4.62,2.88-3.09Z"/><path class="cls-3" d="M795.57,375.49c-1.54,2-1.61,2-3.74.63Z"/><path class="cls-3" d="M848.14,432l-2.62-1.75C847.77,429.84,848,429.47,848.14,432Z"/><polygon class="cls-3" points="756.4 343.05 754.13 342.3 758.22 341.85 756.4 343.05"/><path class="cls-3" d="M717.77,326.15l4.19,1.37c-.09,1,1,5.53-.31,6.11-5.84.3-14.69.68-18.89,5.42-1.45-1.1-4.75-.74-6.39-.38a16.13,16.13,0,0,0,1-8.66,17.76,17.76,0,0,0,6.76-3.67c3.58-1.46,6-2,7.37-6.14C715.2,322.14,718.12,320.8,717.77,326.15Z"/><path class="cls-3" d="M719.4,339.16l5.11-.67c1.84,2.94,2.13,2.75-1.1,4.34,1.91-.09,5.29,0,6.35-2.07,2.48,6.11-4.51,9.46,1.19,8.56.06-2.31,2.22-7.76,4.13-9.17l3.13,3.59c-.62,1.84-2,11.63-4.1,12.48,0,1.83.28,3,2,3.91l1.92,4.34c.47,3.95.42,3.15-2.57,1.38-1.57,1.26-1.75,2.13-3.29.15-1.17,3.88-1.19,3.25,2.57,2.81-.8,5.39-6.53,2-9.51.62-3.88-9.64.47.67-16.71-3.45-5.57-1.79-4.66-1.2-2.75-6.4-3.95-4-6.58-2.76-3.27-8.95l6.32,1.47c1.43,1,4.53,3,6.37,2.94-3.28-6.51-6.08-4.08-11.05-7.89-.34-2.26.17-2.42,2.14-3.2,1.13.12,5.29,1.16,6.2.09-9.75-2.12-.28-1.37-5.59-4.1,1.23-.73,4.76-2.59,5.15-4.1a40.13,40.13,0,0,1,10.74-1.13C722.27,336.29,721.24,338.72,719.4,339.16Z"/><path class="cls-3" d="M747,370.34a9.38,9.38,0,0,1,2.92,6.39l-3.1,1.94a6,6,0,0,1-4.24-3.66l-2.77-1.24c.06-1.75,2.52-1.77,3.73-2.06C744.87,369.92,744.67,368.25,747,370.34Z"/><path class="cls-3" d="M767.66,343.47c.81,1.38,4,2.43,5.39,2.83l-6,6.51-4.73-.88c1.14,2.4.43,3-1.21,4.74l-2.7-.53a56.43,56.43,0,0,1,3-10.76l1.9.6C762.94,342.24,765.22,343.88,767.66,343.47Z"/><path class="cls-3" d="M745.31,324.43c-1.72,3,1.85.82,3.14,1.13,1,2.47-.89,3.71-2.32,5.31l-3.3.72-2.41-1.91c-2-.4-13.24,3.42-10.31-2.22,1.53.14,5.9.81,7.22-.21l-8.88-2.15L727,322l5.92-.33c-4.15-1-3.71-.7-.47-3.07,6.19-3,6.89,1.94,6.23,6.89l3.09,1.57,1.86-5.84,4.13-.66Z"/><path class="cls-3" d="M740.21,312.65c-1.63.16-3.67,2.16-4.57,3.41l-2.88.93c-1-1.65.49-2.09,1.55-3-8.48.63-5.61,5.43-10.72.48.9-.63,2.5-2.87,3.76-1.77C732.52,311.28,735,309.39,740.21,312.65Z"/><path class="cls-3" d="M750.52,311.93c-1.75,2.86-1.73,3.65-5.38,3.16-1.32-1.85-.45-2.28.77-3.74Z"/><path class="cls-3" d="M772.46,315.89c1.8,1.48,1.54,1.68.37,3.52l-3.46.46c-.21-1.63-.4-4.95.88-6.24Z"/><path class="cls-3" d="M771.6,326.13c1.28,2.43,2.53,2.39,5,2.49,1.79,3,3.81,3.79-1.23,3,1.15,1.11,3.9,3.11,3.25,5,1.52-.45,4.31-.8,5.64.34,3.46-1.8,8-2.19,11.39,0,6.36,11.39-12.42,5.67-17.52,5.88l.61-1.82-3.46,1.08-3.86-2.2c0-1.52.13-4.41,1.5-5.42-.49-4.54.54-4.89-4.57-4.82l-1.59-3.38C768.81,325.24,769.61,324.12,771.6,326.13Z"/><path class="cls-3" d="M784.17,302c.12,3.58.94,3.72,3.92,5.14-1.86,9.51,2.24.92,1.82,7.25-1.16.75-4.53,3.4-6,3.17l-.7,2.34c-5.47-.74-5-1.1-6.6-6.08l4.81-1.44c-1.16-1-4.06-.78-5.46-.55l-.1-5.33c1.88-2.18,1.56-3.86,4.63-1.67l-.58-2.83C780.58,302.12,784.47,300.07,784.17,302Z"/><path class="cls-3" d="M764.67,308.76c.06,1.8-1.42,3.6,1.52,2,1.74,3.21,1.22,4.79-.08,8-4.52-1.39.8-1-4.67-5.71.54-1.79,2.06-2.84-.57-3.63C762.11,307.34,762.81,308.13,764.67,308.76Z"/><path class="cls-3" d="M764.6,327.53c-.57,1.53-2.05,7.24-3.58,8.09l-5.2-.5c-.35-2.73,1.1-2.69,3.12-3.57l-5.76-.65c4.44-2.39,3.23-8.51,5.84-1.25l.13-3.58C761.1,326.09,763.83,324.89,764.6,327.53Z"/><path class="cls-3" d="M796.55,349.75l5.2,1.08c.83,1.06,2.66,2.93,1.87,4.45l-3.36-.51-3.92.86-2.8-4.2C793.71,348.36,794,349,796.55,349.75Z"/><path class="cls-3" d="M806.12,385.58c2.41,0,1.49,4,1.8,5.41-1.37,2-3.56,2-5.69,1.94-1.28-2.63-.52-4.33.77-6.69Z"/><path class="cls-3" d="M776.06,405.91l1.19-1.22,7.88,6.27c.35,1.21,1.56,3.42.13,4.4,2.88-.23,3.92-.8,5.43,2.18-3.1,3.08-4,1.37-7.29,0,.52-1.95-2.38-2.44-3.58-3-1.17,2.85-4.79,5.91-7.88,6.29-.52-4.25.4-4.54-4.25-3.6-2.67-1,2.19-2.89,2.71-3.78l.08-3.08C772,407.47,774,394.52,776.06,405.91Z"/><path class="cls-3" d="M753.1,341.68c.78,2.43,2.86,1.61,4.77,1.59-.28,3.46-1.33,3.75-4.22,5.08,1.91.15,2.64,1.27,3.36,2.87-1.24,2.45-1.58,6.15-5.14,6.23-2-1.8-1.65-1.45-2,.86l-2.48-.1c-.33-2-.59-6.64-3-7.51-.44-2.91-1.47-3.57,1.93-4.69-.12,3.41,1.34,1.82,3.58,1.66L748.57,344C749.53,342.92,751.55,341.51,753.1,341.68Z"/><path class="cls-3" d="M739,344.65c-.91-4.16-2.63-4.59,2.61-5.2C742.36,342.82,741.53,342.91,739,344.65Z"/><path class="cls-3" d="M727.45,319.77c-3.79-1.86,2.72-1.55,3.52-2.29Z"/><path class="cls-3" d="M753.7,309.36l-.74,1.91-4.66-2.5C748.94,309,754.09,307.68,753.7,309.36Z"/><path class="cls-3" d="M768.77,337.92c-.58,2.34-.92,2.19-3.16,1.95L762.8,337c1.47-1.49,3.12-3.58,5.53-2.85Z"/><path class="cls-3" d="M779.94,325.26l-2-1.06C779.9,323.21,780.08,322.69,779.94,325.26Z"/><path class="cls-3" d="M771.72,320.47c1.67.62,3.74,0,2.44,2.52C772.54,322.08,768.2,323.32,771.72,320.47Z"/><path class="cls-3" d="M792.93,427.37a5.3,5.3,0,0,1-.7,5.57l-2.18-1.34C790.6,430.08,790.64,427.22,792.93,427.37Z"/><path class="cls-3" d="M784.26,423.08c.18,1.9-2.93,4.16-4.19,5.16l-2.55.18c-1-2.28.47-3.65,1.77-5.29Z"/><path class="cls-3" d="M799.16,419.83l-.27,2.56C798.24,420.69,794.73,419.68,799.16,419.83Z"/><path class="cls-3" d="M812.36,389.15c-1.61-.22-3.19.38-3.33-1.86C810.1,387.79,813.89,386.94,812.36,389.15Z"/><path class="cls-3" d="M832,1057.71c-3.78.15-16.14,1.21-19.54-.52,3.49,0,11-1.35,14.41-2.14l-3.29-.1,4.4-3c-1.19.23-6.72.74-7.5-.41,3.32-2.69,6.93-1.74,2.82-5.54,2.09-.19,5.69-3.22,7.25-4.46,1.58-.52,7.93-3.9,6.67-6,3.71-2,1.81-4.08,1.56-7.28,1.77-1.66,3.53-1.48,1.55-4.13,2.3-.55,5.76-6.88,7.06-8.57l-.26-1.79c1.19-1.4,2.79-2,1.42-4l.64-5.74c2,0,3.33-4.91,4-6.21l-.54-3c1-2.28.13-7.22-.5-9.51-1.68-.86-7.82-2.19-8.48-4.18-10.25-3.63-23.87-4.48-33.07-10.83l-3.36-3.6,1.48-1.67-5-5.64c-1.46-.7-3-1.56-3-3.39l-3.21-1.9c-.1-1.78-3.15-4.95-4.32-6.15-1.66-3.54-6-10-9.38-12-2.7-5.41-8.6-8.22-13.93-10.22,7-4.23-12.29-7.6,8.67-15.77,1.09-2.49,3.89-3.42.14-5.12l-2.19,2-5.36-3.26,1.52-.6c-2.62-10.93,1.48-3,2.25-10.17,7.86-5.42-4-7,12.5-9.32-1.73-3.53-.36-2.59,2.56-3.49-1.4-7.54,3.37,1,11.85-13.48-4.28-.87-2.1-2.2-1.65-5.23l-.91-4.54,1.21-2.38-1.73-2.62.86-2.17c-1.88-1.72-7.45-8.07-8.3-10.49l2.41-2.12c-3.77-1.61-9.51-7.83-12.78-1.72-1.25.49-5.41,1.6-5.56,3.31,2.17,3.34,5.71,3.63.1,5.4-4.25,1-3.76-1.3-5.59-4.12-.35,2.25-1.2,1.2-2.71.77l-1.71-2.89-3.94-1.39c-2-.2-3.78-.7-5,1.32-.87-1.71-2.34-4.38-4.52-4.61l1.35,2.13c-2.76-1.49-4.08-.86-2.6-4.46-1.08-1.55-6.16-4-7.82-4.79.45-1.84-3.45-3.76-4.54-4.6,1.25,2.1,4.35,2.76,1,4.74-2.67-1.47-4.59-3-5.35-6.12l1.33-2.28c-1.43-1-2.43-1-.52-2.44-4.44-3.76-9.43-10.73-14.16-14.25,3.21.1,2.46-.13,1.5-3-1.67-.3-2.79-1.09-3.4.83l-7-1.62-6.94-2.92c-2.41-1.6-6.9-4.32-9.86-4.09-7.6-3.54-13.2-13.18-19.23-18.74-1.84-.83-6.08-2-6.9-4-2.47,2.25-9,3-12.13,3L652,767.49c-3.6-.86-8.73-3.94-10.69-7.17-7.15-3.07-16.14-8.9-20.13-15.74a48,48,0,0,1-10.38-6.16c-1.06-3.26-6.21-8.22-8.84-10.3-.93-2.08-3.4-7.1-3.43-9.4l2.92-.5c-2.81-3.53,1.12-1.63,1.55-6.52a15.44,15.44,0,0,1-2.15-9.58c-3.47-5.62-6-14.38-10.46-19.45.3-.48-2.26-4,.19-3.28-1.8-2-7.37-7.22-6.66-10.59l1.86-1.46-.94-3.65-1.63-.59c.19-2.47-1.32-4.65-3.06-6.3.87-3.91,1.37-4.1-2.44-6.3L574,640.22c.54-5.31-3.2-13.06,0-18-1.39-.94-3.61-3.79-3.8-5.56-1.77,1.56-3.72-3.72-4.59-4.51.58,1.55-.82,4.28-1.6,5.55-1.19,5.53-1.37,11,1.82,15.94-.21,2.44,1.67,7,2.82,9.15l-.52,4.71c1.37,2,3.59,8.77,4.38,11.12l-.18,7.4c1.48,3.12,2.18,8.82,1.07,12.13,1,1.11.79,4,2.39,1,.32,1.31,4.78,8.93,2.95,10.2l-3.4,1.24L574,684.23l-5.06-7.93c-5.52-8.73-.25-5.59-2-16.16-1.34-1.77-3.66-4.91-3-7.34-2.69.4-3.07,1.13-3.84-1.95-2.28-1.77-4.17-6.84-4.75-9.55,4.26,1.82,3.88,2.54,6.79-1.6-1-3.48-3.39-11.26-5.75-14,.55-4,.49-11.84-.64-15.74l0-9.49.62-5.15c-.56-1.29-1.7-5.47-3.42-5.78,1-2.5-1-3.24-2.52-4.64-.55-3-2.87-4.82-5.34-6.29,1.92-3.22-.06-13.59-.55-17.06,4.4-7.61-1.44-4,2-11.87l1,3.29c.49-3.61-1-5.18,3.46-2.91l-3.12-2.65c-1.58,3.15-1.25.91-2.13-.88.75-1.94.24-6.1-.28-8.07,1.51-3.1,3.39-9.32,3.05-12.77,4.36-3.37,6.86-11.31,8.29-16.28,6.85-5.63,15.15-19.8,18.91-27.28.56-2.37,2.14-8.42,3.63-10.37,3.27,8,8.63,2.13,3.16,12.4,5.63-1.31,5.67-11.51,6.41-16.23-1.65-1.89-.71-2.91.29-4.76-2.33,1.54-2-.85-2.86-2.32l1.28-3.85c-.66-.94-5.74-3.28-3.86-4.82-2.91-6.64-1-7.82,3.39-12.91l-3.37,2.39c0-2.37,3.79-5.6,5.43-7-2.78,1.16,1-6.28.67-6.87,1.12,3,1.42.21,2.58-.75l-5.83,2.07c.19-3.49-.62-4.84,3.11-6.47-.73-3.53,6.17-5.36,8.17-6.87-.25-2.44-2.42,1.89-6.36,2,.35-1.26.32-4.18,2.24-4.15,2-4.15,4.83-4.63-1.55-5.46l3.32-1.69c.32-1.56,3-8,1.53-9.45,2.62-1.94,3.6-6.45,4.05-9.42l2.87-6.28-4.17,5.85L598.48,385a6.26,6.26,0,0,0,1.39-5.91l-1.45,5.18-2.31-.05c-.37-2.23.47-6.39,1.35-8.45.23-4.06-1.35-5.65,3.38-7.37l-3-.08-2.38-8c-2.56-2.19-2.6-2.45-1.51-5.58-.91-2.27,0-4.59,1.16-6.53l1.57-.91L592,344.22c-.91,3-2.42,3.21-5.16,3.89l-.42-2.79c-4.12,2.34-3.1-1.55-7.39,0-2-2.24-.83-1.71,1.24-2.29.17-2.53,6.43-4.19,8.18-5,1.88.48,3.21.71,3.57,2.95.91-1.2,2.09-2.07.9-3.65-2.47-1.72-14.95.21-17.8.38-.69,4.77-3,3.15-6.62,3.95-.87-1.62-5.82-2.06-7.36-2.36l-2.2.9-5.76-2.41c-2.66,1.57-4.36-.89-6.32-2.24-.57-1.83-4.15-4.31-5.66-5.31,2.57.1,9.65-1,8.42,3.55,1.73-1.21,5,0,6.71.69l5.33.61c2-1.05,7-3.53,9.23-3.71-3-1.37-1.89-1.8-.89-4.25l-3.09,1.73c8.9-11.91-5.51-2.76,4.13-11.37,1.79.15,5.45-3.41,6.68-4.45-2.58,1.27-2.46-.26-3.66-2.08l4.8-6c4.42-.17,1.21,1.67.61,3.81,2,1.33,1.82-3.91,2.34-4.71l4.66-4.47,11.55-.08c-2.52,3.4-.14,2.31,2.33,3.24.46,1.89.14,2.91,2.55,2.39,1.55-1.29,5.54-4.4,7.7-4.34l-4.4-1.78,1.32-2.57c-1.26-1.61-1-3.37-.34-5.17,7.71-7.2,2.68,2.94,7.72-6.86,2.08,1.19,6.56,3.82,7.22,6.31-3.91,1.48-4.17.91-3.62,5.39,5-2.05,7.1-.53,7.83-6.93,2.47-.74,6.76-6.69,8.24-8.65,3.63-.08,4.09-1.09,4.45,3.13,2.12.95,7.19,1,9.49.85.61,1.6,4.73,2.34,6.12,2.71-.35,3.44,2.89,2.31,5.08,3.07l-3.27,5.38,1.53,1.12-2.36,4.86c2.09,2.38,2.29,3.26,1.4,6.33.8,9.4,5.32,3.38,2.68,12.14l1.86,4c-.8,2.18-1.91,6.43.72,7.76,2.77-2.18,4-1.06,6.79.11l-2.13.89a24.23,24.23,0,0,1,8.75,1.23c1.91-.22,2.65-.79,3,1.59-1.48,0-5.06.15-6.28-.88l-6.46,1c1.31.08,6.48-1,7.11.81.37.51,8-.63,5.08,1.43,11.27-2.45,2.92.48,4.31,6.66,1.29-1.29,4-2.89,5.93-2.81a8.14,8.14,0,0,1-4,3.9c1.45,1.8,3.45.08,5-.54,1.2,1.24,3.92,3.45,3.34,5.46,1.54,2.32,4.32,9,7.74,7.95l1.21,5.24c-1.57-.49-4.32.53-5.67,1.29l2.79,2.94c5.08,3.85,11.26,0,10.63,4.42,2.34,1.54,2.24,3,2.07,5.51-3.15-1.17-.72,1.33-.85,2.67,4.29.14.9-5.93,4.69-8.21,2,.34,5.17.13,6.85-1.3l-8.26-1.12c1.38-2.26,6.55-1.7,8.7-1.69l.22,3.55c2.82,7.59,2.65.17,5.8,7.24l5.41.77c1.27.79,4,2.16,5.56,1.68,1.52,1.1,2,2.81,3.5.48-3-.68-2.44-1.75-2.65-4.32l3.72-.06c.8,2.69-.06,4,3.35,2.53-2.77,4-3.28,4.2-1.2,8.88.18-7,3.81-6.72,8.52-10.14-4-4.29.45-1.22.07-5.79l-3.8-3.44c0-2.46-.77-3.7,2.17-4.58-1.53-2-.52-3.08.49-5l6.06-3.62c.92,2.23,3.11,5.64,1.38,8,1.58,4.19,2.36,5.55-2.18,7.84l5.93,2.12-1.33,1.44.18,7.1c2.24-3.35,3.9-9.8,7-2.93-.38,1.18.74,4.68-1.61,3.45-.75,2.51.41,5.81,1.68,7.95l2.61-2.05c2.44-2.74,3.43-8.16,6.58-10.2-2-.76-.84-3.94-.72-5.39.24.63,11,1.42,6.95,3l3.74,2.78-1.92,1.52c3.8,2.74-.3,1.75-2,2.9a20.06,20.06,0,0,0,3.19,7l-.82,2.69c-1.52,1.31-4.93,4-6.9,4.51L778,393.56l2.5,5.41c-4.48,1.82-1.88-2.85-8.57-2.48l1.26,3.74c-1.43,1.08-4.85,5.28-7,4-2.26-2.38-5-5.73-8.74-5.64,6.87,3.68,2.12,5,11.61,7.05-2.91,5.48-5.51,9-12.21,7.25l-.81,2.34L750.7,414l3.15,3c-.38,4.05-3.47,3.63-6.55,2.86.62,2,1.26,2.47-1.18,1.82-.18,3.59-2.18,2.9-4.83,3.63,1.7,1.83-2,3.08-3,4.11l-4,6c-1.53,1.93-2.68,8.77-3.3,11.11.54,1.71,3.88,1.72,5.26,1.87.27,3.28,1.61,11.11-1.12,13.75,1.85-.23,7.73-1.59,9.38-.69,4.16,2.09,9.79,5.75,11.31,10.42,2.08,1.06,8.81,4.39,9.55,6.77,3.92.39,11.77-.05,13.12,4.65a9.36,9.36,0,0,0-.21,7.6l-1,6.51,3,5.73c2.18,1.88,4.89,4.08,4.84,7.38,4.42,2.08,3.58,1.89,5.72-2.3l2,3.35.91-2.27c-2.21-2.12.37-3.86,1.3-5.79-.58-1.92-3.71-10.65-1.86-12.21l-3.12-6.62c6.09-2.39,9.95-5.11,13.74-10.52,1-8.74-.49-14-7.8-19.36,2.69-4.3,6.72-9.5,3.16-14.44l-1.49-1.33,2.62-5.38c-1.9-.83-1.89-4.16-2-5.84l2.57-1.55A47.5,47.5,0,0,0,811,428.84l3.65-1.89c2.74,1.82,7.41,6.07,9,9l4.42.36c.78,2.06,1.79.75,3.12.18-.33,3.8-.75,9,1.8,12.25-.65,5,.78,3.23,4.51,3.74.68,2.55,1.59,3.2,4.06,3.87l3.55-2.91c6.11-7,.91-6.74,5.11-14,.38,1,7.09,6.84,6.53,8.22l3.24,2.85-1.72,1.93c3.72-1.1,3.13-1.06,2.24,2.38,1.82-1.32,3.25,0,4.79,1-3.07,5,0,3.42,3.83,5.85.83,3.14.15,2.43-2.5,2.83,2.15,1.22,3.79,2,3.82,4.75,4.78.49,7.64.58,5.27,6.3l3.25-2.56c2.28.23,4,.31,5.16,2.64,2.93-1.14,3.9-1.13,6.52.69a12.89,12.89,0,0,0-4.28,5c-4.31,2.18-5.25,2.3-6.09,7.35a46.11,46.11,0,0,0,7.66-9.09l3.54-.26c1.49,1.56,2.41,2.78,1.86,5.06l1.58-2.5c2.7,0,4.15.46,5.78,2.81.29,1.9,1.49,5.57,2.7,7.07,0,2-3,5.76-4.16,7.23-4.67,2-7.26,1.85-8.94,7.32-2.92,4.74-3.79,5.29-9.23,6.32-4.24,0-13.49,1.36-17.7,2.18-2.82-.21-8.28,1-10,3.44-1.13,3.42-.49,5.63-4.91,6.28-8.26,6.07-4.25,10.39-11.91,8.07,1.88,1.19,4.89.69,3.49,3.82-2.27,3.37-5.28,9.18-9.84,9.64l-5.77,4c-1,1.91-3.52,5-5.57,5.77,4,1.44,3.1-1.58,4.67-4.16l6.59-5.2c10.84-2.74,10.4-13.09,21.26-19.13,3.68-2.46,9-4.39,13.53-4.26,3.52,1.47,3.46,1.83,3.46,5.57l-4.19,3.74c-2.15-.67-4.2-1.13-6.13.4,1.38.29,3.85.86,4.39,2.38,6-3.66,6,.46,2.52,4.37,1.25.22,3.2-.85,2.44,1.36,1.94,3,1.76,5.44,6.17,4.85-2.16,2.47,6.89,2.9,8.4,3,2.05-2.08,2.27-2.84,5.2-1.4l3.07,2.61c-1.32.16-14.18,10.81-15.19,7.62-1.82,3.68-4.39,8-8.41,9.75l-2.45-1.71c-2.06-6.3,4.13-9.66,8.22-12.94-.91,3.15,4.32-1.28,5.15-1.19l-8.39,1.12,2.68-4c-3.34,2.21-10.25,9.14-14.56,7.1.21,4,.62,4-3.41,5-.95,2.08-1.56,1.47-3.35.87,0,3.07-1,1.44-2.8.84l-.34,2.68c-.77.27-4.08,3.94-4.89,2.32l-2.84,4.21c-3.64,7.83,2.77,3.19-2.43,8.2,4.29,1.1.77,4.22,6.8,4.67-1.31.09-4.49,2.73-4.44,0-2.41,1.68-2.41,2.87-4.09-.36l-.57,3.32c-3,.31-9.84,1.15-12.09,3.41l-3.73,3.4,1.69,2.15c-.18,3-3,8.21-4.79,10.6l-4.55-3.76,3.16,7.73c-1.07,2.35-3.82,8.23-5.85,9.86l2-5.46c-.88-1.68-1-3.72-3.48-3.17,2.11-1.71.33-4.58-.2-6.55-2.38-2.09-.76,7.68-1.29,8l-3.69-1.43L807,616c-.35,2.28,1.37,4.67-2.15,4.51,4.26,2.84,4.22,4.21,4.69,9l-5.38,1.75c4.29.3,9.6-.33,3.58,4.73a5.89,5.89,0,0,0-5.17-.79c3.52,1.31,3.07,1.91,3,5.34-3.28-.11-5.83,1.74-8,3.86-1.82,6.27-5.63-.94-9.85,8.47-3.5,3.29-9.66,6.18-12.85,9.8-.42,2-1.79,6.08-3,7.7.72,5.85,2.82,13.92,6.19,18.84L775.79,687c.62,4.76,4.48,12.33,5.1,17.1a37.18,37.18,0,0,1-2.55,9.4c-6.25,1.65-5.21,1.92-7-4.12-3.06-.33-3.84-6.24-4.66-8.39-2.17,1.5-4.29-6.8-5.1-7.68.66-1.84,1.89-6,1.72-8-3-2.57-5.62-8.15-9-10.09-1.46,1.37-7,2.24-8.89,2.55-3-7-9.9-6.57-16.3-6.49l-1.18-3.29c-1.61,5.25-3-.63-11,2.7-2.21-.8-3.74-3.62-5.52-.59,1.13,1.48,3.08.78,4.53.41,1.52,2.54,3.72,2.87-.36,4.28l4.4,3.86c-3,1.65-3.73-1.09-5.59-2.77-5.07,5.21-.65-1-6.16,1.65l-3.46-1.78c1.55-1.4-2.89-4-3.49-4.86-3.3,3.11-5.28.12-8.54-1l-5-1.22c-.65,1.31-4.64.9-5.77,1-4.14,4.43-7.22,6.7-13.22,3.81l1.12,2.23-4.48,1.86c-3.39,5.24-6.84,9-3.23,15.46-.37,2-2.41,5.49-3.65,7.07-2.87,6.59-5.94,18-4.61,25.2.94,4,4,11.38,6.56,14.65-.06,2.59,2.11,7,3.53,9.14,3.4.63,7.54,2.51,8.64,6.09,1.64.65,5.66-.14,7.32-.49l4.83.6c.8-1.22,5.57-.66,6.75-.67l1.08,2c2.06-.72,5.16.81,2.92-2.64,3.5-1.55,6-2.5,7.38-6.48.51-4.58.35-8.53,5.81-9.38a67.19,67.19,0,0,0,12.36-.94l6.28,2c1.07-2.1,1.89-.25,3.08.53.34,3.8-3,6.85-5.32,9.3-.67,1.87-3.3,3.34.06,3.88l-3.77,9.3a4.13,4.13,0,0,1-1-4.34c-1.5,2.34-3.76,2.73-.82,5.2-3.69,7.24.69,9.23-6.92,15.46,1.82-.69,4.26,1.09,5.61,2.09,3.12-1.46,6.21-.53,9.18.62a18.29,18.29,0,0,0,8.52-.87c1.33,1.09,4.52.92,6.09.66l5.32,1.66,3.63,4.63c.91-2.29,3.47,1.51,4.53,1.95l-1.14,1.3.77,3.36c-1.55,1.25-2.71,5.19-3.11,7.05-.15,1.42.34,5.16-1.6,5.67.2,2.38,1.37,6.62-1.1,8.34,2.1,4.73,6.39,11.48,11.3,13.68.27,4,5.12,3.67,7.84,4.84,4.47-.22,10.23-2.57,13.91-5.06,9.41.74,15.61,4.46,22.1,11.12-2.59-5.42-.15-4.07,3.63-6.71.4-2,3.37-2.74,5-3.21-.88-1.37,1.11-6.62,1.46-8l4.64-3.55c1.34.4,3.51.33,3.47,2.3l2.6-4.08c4.72.44,6.65,0,10.31-3,1.86-.65,4-1.38,4.45-3.56l3.21-1.81c2,.22,3.88-.08,4.5,2.35a12.39,12.39,0,0,1-6.24,3.71c3.55,6.32,3.7,6.56-1,12.21l3.4,4.89c6.28-.58,5.66-4.47,2.18-8.3-.29-1-1.86-3.81-.74-4.8,1-.75,13.56-3.5,12.61-5.83-1.88.27-3.06,1.3-3.65-1.21l2.11-2.21,3,4.65c2.44-.25,7.54-.37,9.54,1.38L871,819.2l14.47-2.54c2,2.18,6,2.72,8.68,2.79,1.75.18,7.95-4,9.47-4.7,3.42-1.22,11.25-3.4,14.87-3.63a18.78,18.78,0,0,1-7.69,2.72c1.6.76,4.06,2.72,4.72,4.42,1.55-2.2,1.77-1.43,3.71-.28,1.88-2.78,5.72.64,7.92,1.16-1.65,1.14-3,5.29-3.52,7.13,4.31-3.11,11.24-3,15.87-.73,5.19,3.75,6.34,2.55,4.86,9.57,1.62-5.77,7.5-1.23,10.68.36l0,3.52,1.63-3.2,7.64-.5c4.52-4.62,16-3.7,22.19-3.36,2.71,1.44,9.08,2.08,9.29,6.23.57-2.4,1.16-1.67,3.07-1.13l1.37,4.82c1.94,3.49,2.7,9.14,8,7.78,1,3.12-.31,3.85-2.31,5.88-1.37,2.22-4.63,6.6-7,7.82-2.39,4-4.57,10.58-10,11.78,4.14,0,9.84-4.92,12.69-7.44,1.18,4.17,1.74,7.28,6.26,3.37,1.5.46,3.77-1.29,4.82-2.16l-1.59,5.63c1.3-2.6,3.92-9.13,7.53-8.32-.7-4.46,3.91-7.19,7.43-8.53,2.6-.66,10.39-.52,13.14-.49l.84,1.82,1.72-2.16c1.85.17,3.35.64,4.19,2.49l-2.1,6.53c11.92-11.86,8.4-6.21,22.32-10.66,6.28-4.69,10.08-4.74,17.67-3.91,1.45,1.3,5.57,2.56,7.5,2.86,2.49-.26,7.47-2.73,9.61-4l1.63,1.48c.29,3,2.2,9.41.85,12.24-2.74,7.15-9,17.08-14.75,22.23-2.32,3.69-7.14,11.29-9.85,14.55-3.26-.76-4.56,4.45-6,6.32-.36,5.68-2.28,13.74-5.55,18.48.71,1.39-4.47,6.62-5.09,7.61-1.75,7-10.74,12.49-13.84,18.85a24.06,24.06,0,0,0-7,6l-11,4.53c-3.12,1.13-8.78,5.25-11.29,7.44-6.51,2-16.92,10.61-22.47,14.53-3.86,10.74-11.2,12.09-18.76,18.94-2.33.31-6.74,2.09-8.22,4.08a14.91,14.91,0,0,0-6,4.4c-9.55,7.25-22.36,13.82-34.59,13.95l-4.09,1-3.29-1,.19,2.14,5.26-.13-1.26,2.11,2.41.72c-5.69,3.61-15.22,6.43-21.77,7.91-5,1-14.09,2.23-17.84,6.09l-8.31,1.63c-2.16.1-7-.13-8.38,2.18l7.09-.83-.26.8c-2.71.6-11.21,2.23-13.43,3.85-2.82.33-9.21,1.31-11.84,2.28l7.63-.1C854.39,1055.69,839.11,1057.21,832,1057.71Z"/><path class="cls-3" d="M809.38,292.25a16.32,16.32,0,0,1,8.73,2.07c1,3-2.23,4.06-4,5.61l1.82,1.75-3,3.95-2.81,5.71c-1.18.32-3.74-.66-2.56,1.58l-5.19.16,3.57,2.73-2.59.32c3.39,1.92,3.27,1.51-.2,3,2.09,1,2.18,1,.95,3.07-4,.06-3.79.74-5.12,4.17l-3.94.26,4.89,2c.68,3.49-2.5,3.49-4.68,4.91l-.72-2.16c-1.49,0-8.18,1.54-9.18-.17l-6.22-1.11c.25-2.77,3.43-3.85,5.84-3.61l-1.34-3.57c2.32-1.54,2.87.07,4.48,1.48l1.26-4.57-4.2.41c1.7-3.75,3.41-5,7.38-3-.54-1.54-1.82-6.06-3.45-6.84l.75-2.78c2.7.1,5.08,2.32,6.68,4.24l-2.29-3.63,8.16-3.29-1.76-1.72c-2.32,2.24-4.27,3.44-7.61,3.27-2-.93-6.65-1.34-6.45-4.39,3.2-2.57,2.35-1.94-.93-2.58,1.61-2.44,6.34-2.09,8.35-4.09l5.48,3.76-3-3.44C798.71,292,805.56,292.06,809.38,292.25Z"/><path class="cls-3" d="M777.59,366c3.11-.37,4.22-.1,5.5-3.36l-2.64-2.92c1.55-2,2.06-1,3.85-.1-1-1.1-2.53-3.4-2.31-5,1.42-2.43,1.6-4,4.91-3.83,2.07-1.57,2.9-2.21,5.47-1.09l2.15,5.92c-1.76,2-3.09,2.54-1.65,5.35,2-3.6,2.53-3.06,6.25-2.69-.8-2.34,2-1.83,3.35-2.36,2.75,1.08,7.43,3.13,6.22,6.85,2.26-.62,6.12.55,8.07,1.7l-.42,1.75c2.77,1.49,2.47,1.35,1,4,3.58-3.47,3.66-2.27,7.67-.48l-4.08,3.15c1.8-.49,3-2.22,3.67.58l1.24-2.67,3.11,3.67-3.33,1.4c6.26,1,7.78,2.73.11,2.54,3.39.77,2.53,1.41,2.38,4.3l5.59,1.27-.08,2.64c5.54-2.8,4.85.14,8.6,3.38,3.88-.66,1.71.79,1.14,3,3.46-1.31,4.45-3.39,7.6,0-.87,2.19-.69,3-3.36,2.31l2.42,2.27-1.86.32c1.61,6.65-2.69-1.5-1.33,8.19-3.12-.09-5.34-2.87-7.1-5l.79-2.35c-3.13,1.95-4.1-1-6.24-2.63-1.1,1.41-1.58,2.08-.58,3.77-6.06,1.27-1.23,1.85.95,4.14,1.24,1.94,1.88,3.61,4.58,3.44,2.12,1.64,4.11,2.6,3.8,5.72l1.67-.22,1.73,5.33L843.35,415c1.15,5.91,4.54,4.25,1.66,7.93-1.79-1.37-5.67-3.58-7.94-3.83l-3-2.8.94,2.16-4.44-1.6c.92,1,3.38,4.23,5,3.94l7.18,5.66-.56,2.57-4.68-1.55c-2.38-.45-7.14-.88-8.26-3.55-1.71.52-4.91-.91-6.37-1.7-.74-1.35-4.72-2.54-1-3.33-5.27-1.94-5.84-6.54-12.55-8.65l1,1.65-7.08,2.36c-4.21-.69-3.81-1.1-4.63-5,1.22-.84,3-1.86,2.6-3.63l5,1.58c-.32-.94,7.06-1.81,7.44-2l-3.11-4.51,6.4-8.09L813,385.08c-.94,1.55-3.28-1.86-4-2.21l-.7-2.44L804,383.06c-.93-2.22.19-2.92,1.67-4.31-2.89-4.68-5-1.26-5.66-6.3L796.79,370c-2.7,2.13,2.86,4.19-1.69,4.76-2.43-.46-5-2.95-6.89.07l-11-2.94c-.15-2.89-2.25-1.24-4-1.18-1.87-1.25-2.61-3.77-2.77-5.9l5.77,1.07-6-4,.33-3c2.7-5.45,6.58-14.06,14-10-5.23,4.87-4.92,5.42-4.61,12.33C783.32,365.31,781,364.16,777.59,366Z"/><path class="cls-3" d="M585.32,429v-3.87C586.4,426.76,586.53,427.42,585.32,429Z"/><path class="cls-3" d="M594.54,406.26c-3.24-1.59.35-1.69,1.43-2.86Z"/><path class="cls-3" d="M594,397.78c-.58.28-3.82,5.1-4.72,3.88C590.06,401.27,592.93,395.31,594,397.78Z"/><path class="cls-3" d="M1053.63,304.76c-1.5.1-5.86-3.94-7-4.78Z"/><path class="cls-3" d="M1032.64,360.66c1.59,0,2.68-.21,3.16,1.66C1034.14,362,1031.22,363.82,1032.64,360.66Z"/><path class="cls-3" d="M1027.13,356.81l2.81,4.74C1027.8,360.05,1026.28,359.89,1027.13,356.81Z"/><path class="cls-3" d="M1018.62,335.49l3.64,1.92C1020.28,337.64,1019.56,337.21,1018.62,335.49Z"/><path class="cls-3" d="M531.12,322.3,528,320.85C529.32,321.3,533.25,319.35,531.12,322.3Z"/><polygon class="cls-3" points="595.86 234.19 598.03 234.01 595.58 236.08 595.86 234.19"/><path class="cls-3" d="M657,237.33l3.34-2.27C659.46,236.56,659.19,238,657,237.33Z"/><path class="cls-3" d="M854.48,230.11c-1-3-.71-2.47,1.93-1.69Z"/><path class="cls-3" d="M849.49,229.48c1.35-.43,2.77-1.35,3.75.24Z"/><path class="cls-3" d="M963.05,340.09c6.43,2.19,5.2-2.1,9.9,1.46l3,5.08c.09,2.23.47,7.87-1,9.78,1,3.92-.68,3.57-3.49,5.27-3.7-.15-4.42-.56-6.43,2.91l-1.36-4.66c-3.46-.93-4.65-.49-7.43,1.66l3.13-4.61c-2.34.23-2.27.13-2.26-2.14-2.33.7-3.17,1.19-3.74,3.66-1.61-1.23-3.53-1.1-.78-2.81-3.74-1.07-2.53-1-.29-3-1.36-.54-4.07.59-2.09-1.88,3.33-.37,6.85,1.85,9.31,3.77l-3.2-5.19,3.15-.23-1.71-1.64c.92-2,1.54-2.57,3.76-2.62l-1-5.33Z"/><path class="cls-3" d="M642.89,256.2c-4.09,2.15-9.93,9.38-14.11,11.36-1.81.32-6.19,1.2-7.44,2.71a7.94,7.94,0,0,0,5.5-1.5l-2.11,5.45c-2.42,2-6.21,5.67-9.74,5.07-1-2.89-.76-3-3.72-1.93-.73-2.24-3.67-.24-5.09,0,2.29-3.55,5.53-7.41,9.7-8.84,4.2-6.42-2.7-2.83,8-7.5-3.24-2.09-4.33,2-8.38.2,6.9-1.55,20.85-4.25,27.83-5.4Z"/><path class="cls-3" d="M1046.28,375.11l.61-3.59c3.86.84,7.18,2.06,7.16,6.61,3,1.64,8.71,5.61,10.42,8.65-1.28,2.5-.93,7.91-.41,10.57-.93,2.94-2.48,6.16-3.12.71l-1.45,2.24c-.09-2.65-3.52-7.49-5.08-9.5l-4.13-.1c-.7-.78-2.71-4.19-4.06-3.85l2.75-4c-1.16-1.27-1.09-4.68-3-1.64C1044.31,378.08,1043.11,377.88,1046.28,375.11Z"/><path class="cls-3" d="M1030,348.46c.87,1.81,3,5.72,4.8,6.77-.34-1.6.85-4.48,1.62-5.83l1.67.15c1.58,1.91,7.67,8,7.5,10.74.56-2.75,2.81-2.17,4.91-2.52l5.42,2.61,5.41-.43c1.57.85,7.41,2.94,7.65,5.15.54-3.87.84-3.23,4.39-3,1,1.3,4.11,4.52,3.53,6.36,4.49,5,.58-4.68,5.06,3.11,1.2,5.64-4.14,5.09-1.58,10.71-1.73,3.32-2.68,3.81-.24,7.21-2.68-.29-.77,4-1,5.42-1.73.21-4.55-8-5.21-9,2.19-3.34.6-4.87-.84-7.93,2,6.15-.7,4.6-4.84,7.64-.08-1.91-.87-5.46-2.06-7-1.9-.93-2.62-2.64-2.59.72-3.89-7.06,1.69-5-5.88-11.74-3,1.2-3.61-.29-5.59-2.11,1,2.18-.39,3.56-1.64,5.15-1.32-2.16-4.55-5.6-7-6.45l3,5.73a69.66,69.66,0,0,1-7.88-8.14c.54,1.74,1.47,2.45-1.06,2.63-1-2.44-4.28-5.61-6.6-6.77-.55-1.28-1.83-3.94-3.37-4.27C1028.12,353.21,1028.86,345.86,1030,348.46Z"/><path class="cls-3" d="M581.09,451.11c4.64,6.1,4.37,6.61,3,14,1.85,2.16.92,5.9.37,8.31l-1.42,1.42-3.57-6.51,2.13-1.09c-3.82-.62-2.37-3.32-2.92-6.09,1.09-1.11,0-5.62-.13-6.93-2.29-1.46-2.22-1.36-.67-3.56.23-1.79-.88-3.58,1.93-2.66Z"/><path class="cls-3" d="M866.26,365.83c2,.12,2.43.61,3,2.46l-3,2.55c-.86-1.73-3.06-2-4.75-2l-.34-4.24A7.28,7.28,0,0,1,866.26,365.83Z"/><path class="cls-3" d="M1158.11,379.44c4.94,9.23,12.38,8.35,2.3,14.22-1.5-2.18-2.06-3.21-.88-5.77Z"/><path class="cls-3" d="M1134.38,381c2.33,1.42,5.89,5.59,7.39,7.85l-1.21.42C1136.49,387.13,1135.65,385.13,1134.38,381Z"/><path class="cls-3" d="M1144.54,389.57c3.92,2.12,8.67,8.18,9.65,12.53-1.86,1.26-3.74-2.36-4.78-3.33l-5.62-4.07C1145.74,392.94,1139.59,388.06,1144.54,389.57Z"/><path class="cls-3" d="M881.59,257.36c2.17-.47,6.76-1.82,8.31-3.5,2.6,3.82,13.39,5,17.48,6.7-4.19,1.56-7.32,3.82-9.44-1.63.35,2.08,1,2.77-1.55,3.24-1.25-1.64-2.63-4.18-5.13-3.78l3.51,4.07-3.74.76-8.45-.55c.59-2,1.81-2,3.6-2.26l-3.6-1,6.26-.81C887.3,258.51,882.72,258.7,881.59,257.36Z"/><path class="cls-3" d="M878.35,253.66c2.66-1.6-.58-1.79-1.61-2.84l2.59-2.42c1.66.42,5.28,1.55,6.44,2.9-1,5.62-4.73,4.28-8.85,3.33Z"/><path class="cls-3" d="M632.91,193.72a144.45,144.45,0,0,0-29.46,8.61l7.46-3.7c-2.34,0-8.57,2.89-10.71,3.85,9.27-5.33,21.44-8.07,31.84-9.95l-2.14,1.25Z"/><path class="cls-3" d="M898.56,214.9l-1.13-1.32c3.9.07,11.47,1,11.35-4.74,1.21.86,6.49,3.57,6.68,5.28-1.64-.35-2.86-1.28-3.79.74l2.78,1.83C911,216.75,901.29,217.73,898.56,214.9Z"/><path class="cls-3" d="M864.43,209.9l14.18,2.78c3.86.35,18.75-.61,21.26,3.37-1.28,1.35-2.41,1.06-4,.51-7.21.35-17.65-.16-24.3-3.2-2.44-.61-7.76-1.55-10.26-1.36C860.69,209,862.47,210.19,864.43,209.9Z"/><path class="cls-3" d="M722.63,214.7c-1.18,1.59-6,2.41-7.8,2.76l3-2.6C718.25,215.14,723.72,212.65,722.63,214.7Z"/><polygon class="cls-3" points="722.41 207.78 717 207.72 723.62 205.39 722.41 207.78"/><path class="cls-3" d="M735,210.26c-2.49.06-2.26,0-.73,1.77L726,213.81c-1.43-2.61-.52-2.24,1.72-3.12,3-3.86,3.84-4.18,8.74-4.16,2,1.23,3.16,1.12,2,3.8Z"/><path class="cls-3" d="M802.23,208.21c-2.61-1.47-4.78-.83-1.33-3.66l7.26-.67C806.72,205.53,805,208.88,802.23,208.21Z"/><path class="cls-3" d="M809.28,211.85c-3.73-1.66-3.15-1.57-1.75-5.09l6.82,1.38,2,1.75A9.31,9.31,0,0,1,809.28,211.85Z"/><path class="cls-3" d="M810,215.51c-2-1.24-1-1.71-.13-3.3,2.54-.39,5.24-.89,7.32,1.16l-2.86,2.18C813.49,215.56,810.3,217.12,810,215.51Z"/><path class="cls-3" d="M580.11,424.26c-1.33,1.71-3.5,5.42-3.84,7.58l1.38-9.17Z"/><polygon class="cls-3" points="582.56 416.55 585.26 418.83 579.77 423.22 578.8 419.74 581.71 415.42 582.56 416.55"/><path class="cls-3" d="M588,433.47c-2.41,1.49-1.15-.64-1.46-2l1.73-1.27Z"/><path class="cls-3" d="M597.93,386.1c-3.48,4,3.89-.09-2.58,6-.24-2.07.17-2.7-2.05-1.39C594.64,387.15,592.92,384.88,597.93,386.1Z"/><path class="cls-3" d="M599.77,388.89c2.29.92-2.59,5.24-2.92,6.27l-2.91-.14Z"/><path class="cls-3" d="M594.53,392.71c-1.08,2-3.71,5.68-5.56,7,1.06-1.81,3.93-6.47,3.53-8.69C594.38,390.89,595,390.38,594.53,392.71Z"/><path class="cls-3" d="M596.32,398.3c1,2-1.37,2.51-2.59,3.41-2-.7.9-3.8,1.17-4.84Z"/><path class="cls-3" d="M592.19,401.61c1.84.31-2.16,9.38-2.12,10.21L587,414.36c-.41-2.37,1-5.42,2.39-7.22C588.1,404,590.28,403.44,592.19,401.61Z"/><path class="cls-3" d="M594.16,412.46l-3.76.1C592.34,410.62,598.38,405.26,594.16,412.46Z"/><path class="cls-3" d="M571.62,345.5c-1.49,3.55-1.56-.33-2.77-1.29Z"/><path class="cls-3" d="M567.63,346.58c-1.16,5.52-2,.45-7.12,1.92C562.79,343.46,563.2,341.67,567.63,346.58Z"/><path class="cls-3" d="M542.08,329.33c-2.13,2.51-2.47-.45-3.93-1.76C541,326.74,541.24,326,542.08,329.33Z"/><path class="cls-3" d="M577.7,303.61l-3.18,2.83c-2.31-.61,1.71-4.52,2-5.5Z"/><path class="cls-3" d="M601,282.2c1.12,2-2.83,5.61-3.82,7-1-1.93.6-3,1.75-4.28C599.45,283.67,598.92,281.35,601,282.2Z"/><path class="cls-3" d="M661.58,254.85c-.86.57-3.07,3.11-4.28,2.18l.61-3.37,4-.5Z"/><path class="cls-3" d="M1145.59,419.49c1.28,2.07,3.87,2.69,0,3.85Z"/><path class="cls-3" d="M1058.37,323.46c2,1,3.75.64,2.77,3.5C1058.86,326.29,1058.58,325.77,1058.37,323.46Z"/><path class="cls-3" d="M1057.43,317.44,1064,323c-6.62-.84-6.28-.08-8.37-6.6Z"/><path class="cls-3" d="M1042.49,293.26a15.11,15.11,0,0,1,5.33,4.29C1045.06,297.14,1043.78,295.52,1042.49,293.26Z"/><path class="cls-3" d="M1145.25,317.65c1.87,2.49,7.54,7.62,7.57,10.73Z"/><path class="cls-3" d="M1164.53,359l-1-7.33c.91,2.07,3.14,7.21,2.66,9.52Z"/><path class="cls-3" d="M780,192.78c.56-1.61,2.76-.69,3.91-.56Z"/><polygon class="cls-3" points="816.64 210.66 817.83 212.22 814.8 211.31 816.64 210.66"/><path class="cls-3" d="M907.46,204.52l3.18,1.7C908.25,206.57,907.26,207.92,907.46,204.52Z"/><path class="cls-3" d="M930.54,216.85l5.4,2.05c-.8,1.32-4.54-.23-5.59-.39Z"/><path class="cls-3" d="M859.12,232.37l.36-1.39c.32.57,8.67.85,6.36,2.63Z"/><path class="cls-3" d="M861.67,234c.85.34,4.48-.67,3.37,1.29Z"/><path class="cls-3" d="M849.42,225.32l3.23-.51C852,227.59,851.17,226.08,849.42,225.32Z"/><path class="cls-3" d="M891,253.72c1.58-.42,4.93-1.07,5.45-3l4.34,2.42L900,255C894.44,252.68,892.35,256.61,891,253.72Z"/><path class="cls-3" d="M1035.23,282c.18-3.58,2.57,2,3.4,2.29C1036.47,284.59,1036.12,283.66,1035.23,282Z"/><path class="cls-3" d="M918.53,332.57l1.62,1.29-3,4.19-2.19-2.5C915.68,334.72,917,331.74,918.53,332.57Z"/><path class="cls-3" d="M848.93,224.33l-3.84.72C845.4,223.36,847.85,224.32,848.93,224.33Z"/><path class="cls-4" d="M1255.12,603.92c-.26-11.89-.54-23.77-1.73-35.62-.61-6-1-12-1.84-18s-1.78-11.71-2.64-17.57a289.61,289.61,0,0,0-7.06-34.39c-3-11.13-6-22.38-9.52-33.36-1.86-5.72-3.85-11.4-6.12-17-2.1-5.19-4.63-10.2-6.63-15.43a283.79,283.79,0,0,0-13.92-31.29q-3.92-7.38-8.32-14.5c-2.9-4.69-5.28-9.62-7.95-14.43a215.22,215.22,0,0,0-18.62-27.7c-7.07-9-13.23-18.68-20.64-27.49s-15.55-17.24-23.37-25.79c-15.58-17-34-31.59-52.16-45.65A414,414,0,0,0,1017,208.86c-10.07-5.4-20.15-10.65-30.61-15.26s-21.15-8.39-31.85-12.37c-44.06-16.4-90.86-24.8-137.8-26.48A450.18,450.18,0,0,0,745,158.13c-23.83,3-47,8.29-70.12,14.72-10.81,3-21.31,7-31.86,10.73-10.82,3.88-21.53,8.18-31.92,13.1-10.56,5-21.2,10.31-31.35,16.1-4.89,2.78-9.55,5.92-14.39,8.79-5.06,3-10.13,6-15,9.22-9.33,6.16-18.14,13-27.11,19.67s-17.64,14.29-26.08,21.85A319,319,0,0,0,473,296.78c-7.64,8.49-15.83,16.42-22.9,25.42-3.45,4.38-6.57,9-9.9,13.46s-6.84,8.58-10,13a272.16,272.16,0,0,0-18.18,29.09c-2.62,4.8-5.71,9.33-8.39,14.1-2.89,5.12-5.55,10.37-8.15,15.64q-3.66,7.43-6.71,15.14c-2.13,5.4-4.66,10.61-7,15.93a246.73,246.73,0,0,0-11.34,32.22c-3.1,11.21-6.83,22.26-9.54,33.58-2.75,11.48-4,23.11-6.18,34.69a292.2,292.2,0,0,0-4.32,34.25,498.42,498.42,0,0,0,.63,72.19c1,12,2.66,23.9,4.49,35.8a290.87,290.87,0,0,0,6.94,33.59c3.12,11.25,6,22.62,9.65,33.72s8.54,21.67,12.79,32.54A298.38,298.38,0,0,0,398.61,812c2.62,4.95,5.64,9.65,8.44,14.49s5.35,10.07,8.17,15c5.69,10,12.57,19.26,19.46,28.47,3.27,4.38,6.25,9,9.43,13.41,3.41,4.78,7.15,9.34,10.95,13.81,7.25,8.55,15.09,16.71,22.7,25,7.86,8.48,16.64,16.14,25.27,23.82s17.82,14.87,27.08,21.93,18.58,13.71,28.44,19.79c19.4,12,39.29,23.18,60.2,32.33,10.7,4.68,21.81,8.28,32.65,12.61,5.23,2.1,10.48,3.72,15.88,5.31,5.71,1.69,11.32,3.67,17.06,5.24a443.47,443.47,0,0,0,70.17,13,454.19,454.19,0,0,0,141.43-7.28c11.5-2.46,22.81-5.57,34.14-8.73a158,158,0,0,0,16.59-5.5c5.2-2.09,10.66-3.62,15.93-5.53a339.37,339.37,0,0,0,32.45-13.52c10.31-5,20.78-10.12,30.68-15.88,4.87-2.83,9.55-6,14.41-8.84,5.06-3,10.07-6,14.95-9.24,9.37-6.25,18.33-13.15,27.31-19.93s17.57-14.35,26-22,15.92-15.86,23.66-24.1,15.5-16.13,22.45-25c3.64-4.64,6.89-9.55,10.48-14.22,3.38-4.4,6.89-8.69,10.11-13.22a332.14,332.14,0,0,0,18-29.12c2.8-4.93,6-9.64,8.67-14.61,2.82-5.14,5.49-10.38,8-15.66s4.68-10.65,6.91-16c2.14-5.14,4.61-10.15,6.76-15.29a288.4,288.4,0,0,0,11.31-33.24c3.15-11.2,6.85-22.23,9.39-33.58,2.51-11.19,3.7-22.54,5.89-33.77a257.68,257.68,0,0,0,4-33.24c.35-5.66.29-11.34.55-17C1254.79,615.74,1255.16,609.84,1255.12,603.92Z"/><ellipse id="Ellipse_313" data-name="Ellipse 313" class="cls-5" cx="797.86" cy="604.38" rx="568.14" ry="567.32"/><path id="Path_1228" data-name="Path 1228" class="cls-6" d="M798.83,1053.8a449.43,449.43,0,0,1-141.65-22.69c-103.64-38.55-119.6-257.79-35.5-490.72,84.16-233.1,236.73-391.79,341.16-355.12q5.67,2.22,11.29,4.58a448.19,448.19,0,0,1,131.68,85.33v0c-11.41-105.28-50.43-181.3-115.13-204.59-135-48.61-330.79,150.91-437.21,445.66s-83.23,573.1,51.82,621.72c64.91,23.37,143.85-10.61,220.16-84.93-8.84.51-17.71.8-26.62.8Z"/><ellipse id="Ellipse_314" data-name="Ellipse 314" class="cls-7" cx="797.99" cy="603.97" rx="567.53" ry="260.15" transform="translate(-40.77 1149.91) rotate(-70.18)"/><path id="Path_1229" data-name="Path 1229" class="cls-8" d="M817,1061.05c-73.67,68.7-149.2,99.39-211.73,76.88-135-48.62-158.25-327-51.82-621.72S855.65,21.94,990.69,70.55c62.44,22.48,101,94.08,113.83,193.7"/><g id="Group_7968" data-name="Group 7968"><path id="Path_1239" data-name="Path 1239" class="cls-9" d="M1248,635.88c70.67,26.64,113.28,43.4,112.86,44.55-1,2.73-235.25-79.92-523.23-184.58C751.35,464.49,670,434.71,598.47,408.31"/><path id="Path_1240" data-name="Path 1240" class="cls-9" d="M657.11,300c68.15,21.26,144.3,47,224.18,76C1158.16,476.64,1375,579.13,1365.57,605c-4,10.89-47.55,6.39-117.41-10"/><path id="Path_1241" data-name="Path 1241" class="cls-9" d="M625.09,355.27c70.31,24.06,149.7,52.07,233.52,82.53,282.75,102.76,508.88,194.55,505.07,205-1.62,4.44-44.38-6.48-114.68-28.38"/><path id="Path_1242" data-name="Path 1242" class="cls-9" d="M732.54,196.07c58.91,17.14,123.74,38.32,191.27,62.86,249.52,90.69,441.33,192.93,428.42,228.36-5.64,15.47-49.37,15.64-117.62,3.38"/><path id="Path_1243" data-name="Path 1243" class="cls-9" d="M696,242.18c64,19.31,135,42.93,209.39,69.95,262.83,95.53,467,197.35,456.06,227.42-4.72,12.93-48.44,10.49-117.64-4.08"/><path id="Path_1244" data-name="Path 1244" class="cls-9" d="M793.57,134.33c48.84,13.95,101.95,31.14,157,51.15,218.05,79.25,384.18,172.67,371.06,208.66-6.23,17.09-51.75,18.16-121.19,6.08"/><path id="Path_1245" data-name="Path 1245" class="cls-9" d="M764.09,161.85C818,177.43,877,196.64,938.38,218.94c233.54,84.88,412.45,182.28,399.6,217.54-5.86,16.07-50.56,16.46-119.6,4.08"/><path id="Path_1246" data-name="Path 1246" class="cls-9" d="M825.28,109.35c42.86,12.15,89.08,27.07,136.85,44.43,200,72.67,351.42,160.76,338.3,196.75-6.61,18.15-53.86,19.58-124.72,7.21"/><path id="Path_1247" data-name="Path 1247" class="cls-9" d="M864.61,85.55c34.64,9.74,71.53,21.6,109.49,35.39,174.6,63.46,305.56,143.94,292.5,179.75-7.13,19.56-55.71,21.76-126.78,9.39"/><path id="Path_1248" data-name="Path 1248" class="cls-9" d="M909.77,68.08c23.93,7,49,15.2,74.66,24.52,142,51.59,248,118.07,237,148.49-7.85,21.53-72.33,19.22-159.69-2.28"/><path id="Path_1249" data-name="Path 1249" class="cls-9" d="M992.26,71.14c259.94,94.47,383.67,409.76,276.34,704.2s-405,456.55-665,362.07"/><path id="Path_1250" data-name="Path 1250" class="cls-9" d="M992.26,71.14c202.42,73.57,279.51,371.9,172.19,666.35S806,1211,603.6,1137.41"/><ellipse id="Ellipse_315" data-name="Ellipse 315" class="cls-10" cx="797.93" cy="604.28" rx="567.51" ry="120.47" transform="translate(-42.81 1147.41) rotate(-70)"/></g></g></svg>